<svg width="72" height="73" viewBox="0 0 72 73" fill="none" xmlns="http://www.w3.org/2000/svg">
<path d="M35.34 24L24.79 30.09V42.27L35.34 48.36L45.88 42.27V30.09L35.34 24Z" fill="white"/>
<path d="M57.5698 23.34H69.6998L63.6398 12.84L57.5698 23.34Z" fill="#FFBC00"/>
<path d="M57.5698 49.01L63.6398 59.52L69.6998 49.01H57.5698Z" fill="#FFBC00"/>
<path d="M29.27 72.36H41.4L35.34 61.85L29.27 72.36Z" fill="#FFBC00"/>
<path d="M0.970215 49.01L7.04021 59.52L13.1102 49.01H0.970215Z" fill="#FFBC00"/>
<path d="M0.970215 23.34H13.1102L7.04021 12.84L0.970215 23.34Z" fill="#FFBC00"/>
<path d="M29.27 0L35.34 10.51L41.4 0H29.27Z" fill="#FFBC00"/>
<path d="M46.9145 2.04855L39.8745 14.2422L52.0681 21.2822L59.1081 9.08855L46.9145 2.04855Z" fill="#F43BA6"/>
<path d="M71.08 29H57V43.08H71.08V29Z" fill="#F43BA6"/>
<path d="M52.0662 51.0586L39.8726 58.0986L46.9126 70.2923L59.1062 63.2523L52.0662 51.0586Z" fill="#F43BA6"/>
<path d="M18.6084 51.0621L11.5684 63.2557L23.762 70.2957L30.802 58.1021L18.6084 51.0621Z" fill="#F43BA6"/>
<path d="M14.08 29.14H0V43.22H14.08V29.14Z" fill="#F43BA6"/>
<path d="M23.763 2.05473L11.5693 9.09473L18.6093 21.2884L30.803 14.2484L23.763 2.05473Z" fill="#F43BA6"/>
</svg>
